<svg id="SvgjsSvg2313" width="550" height="345" xmlns="http://www.w3.org/2000/svg" version="1.1" xmlns:xlink="http://www.w3.org/1999/xlink" xmlns:svgjs="http://svgjs.com/svgjs" viewBox="0 0 550 345" style="width: 100%; height: 100%;"><svg xmlns="http://www.w3.org/2000/svg" data-version="3.4.38" data-background-color="#ffffff" width="550" height="250.225" viewBox="-0 0 502.8031424939602 250.225" x="0" y="47.3875"><g transform="matrix(1,0,0,1,174.9156424939602,106.5)"><g id="tight-bounds"><g></g><g><svg version="1.1" xmlns:xlink="http://www.w3.org/1999/xlink" xmlns:svgjs="http://svgjs.com/svgjs" viewBox="3 -36.83 227.89 37.225" width="227.88750000000002" height="37.225" x="0" y="0" data-palette-color="#293856"><path d="M17.55 0L3 0L3-36.43L16.40-36.43Q20.18-36.43 22.83-35.73Q25.48-35.02 27.15-33.75Q28.83-32.48 29.59-30.65Q30.35-28.83 30.35-26.58L30.35-26.58Q30.35-25.35 30-24.21Q29.65-23.08 28.90-22.08Q28.15-21.08 26.98-20.26Q25.80-19.45 24.15-18.85L24.15-18.85Q27.75-17.98 29.48-16.01Q31.20-14.05 31.20-10.98L31.20-10.98Q31.20-8.65 30.30-6.65Q29.40-4.65 27.66-3.16Q25.93-1.68 23.38-0.84Q20.83 0 17.55 0L17.55 0ZM17.35-15.45L11.45-15.45L11.45-6.38L17.40-6.38Q19.07-6.38 20.14-6.80Q21.20-7.23 21.80-7.90Q22.40-8.58 22.63-9.43Q22.85-10.28 22.85-11.15L22.85-11.15Q22.85-12.15 22.59-12.95Q22.33-13.75 21.69-14.30Q21.05-14.85 20-15.15Q18.95-15.45 17.35-15.45L17.35-15.45ZM11.45-30.10L11.45-21.10L15.85-21.10Q17.25-21.10 18.38-21.30Q19.50-21.50 20.29-22Q21.08-22.50 21.49-23.38Q21.90-24.25 21.90-25.58L21.90-25.58Q21.90-26.88 21.58-27.74Q21.25-28.60 20.58-29.13Q19.90-29.65 18.86-29.88Q17.82-30.10 16.40-30.10L16.40-30.10L11.45-30.10ZM44.25-36.43L44.25-21.68L45.60-21.68Q47.47-21.68 48.30-22.85L48.30-22.85L56.50-34.75Q57.17-35.73 58.04-36.08Q58.90-36.43 60.15-36.43L60.15-36.43L67.50-36.43L56.70-21.70Q56.12-20.90 55.50-20.38Q54.87-19.85 54.22-19.50L54.22-19.50Q55.17-19.15 55.96-18.54Q56.75-17.93 57.40-16.90L57.40-16.90L68.40 0L60.85 0Q60.12 0 59.61-0.10Q59.10-0.20 58.72-0.40Q58.35-0.60 58.07-0.89Q57.80-1.18 57.55-1.55L57.55-1.55L49.30-14.23Q48.85-14.93 48.16-15.21Q47.47-15.50 46.30-15.50L46.30-15.50L44.25-15.50L44.25 0L35.80 0L35.80-36.43L44.25-36.43ZM80.00 0L68.75-36.43L75.84-36.43Q76.95-36.43 77.68-35.93Q78.42-35.43 78.65-34.60L78.65-34.60L83.65-15.60Q83.90-14.68 84.15-13.63Q84.40-12.58 84.52-11.43L84.52-11.43Q84.77-12.60 85.07-13.64Q85.37-14.68 85.65-15.60L85.65-15.60L91.55-34.60Q91.77-35.30 92.51-35.86Q93.25-36.43 94.30-36.43L94.30-36.43L96.80-36.43Q97.90-36.43 98.61-35.94Q99.32-35.45 99.59-34.60L99.59-34.60L105.45-15.60Q105.72-14.73 106.02-13.74Q106.32-12.75 106.55-11.63L106.55-11.63Q106.75-12.73 106.96-13.73Q107.17-14.73 107.40-15.60L107.40-15.60L112.40-34.60Q112.59-35.33 113.34-35.88Q114.09-36.43 115.15-36.43L115.15-36.43L121.80-36.43L110.55 0L102.90 0L96.05-22.58Q95.87-23.10 95.68-23.73Q95.50-24.35 95.32-25.05L95.32-25.05Q95.15-24.35 94.96-23.73Q94.77-23.10 94.59-22.58L94.59-22.58L87.65 0L80.00 0ZM160.99-18.23L160.99-18.23Q160.99-14.28 159.63-10.88Q158.27-7.48 155.79-4.96Q153.32-2.45 149.83-1.03Q146.34 0.40 142.09 0.40L142.09 0.40Q137.84 0.40 134.34-1.03Q130.84-2.45 128.36-4.96Q125.87-7.48 124.51-10.88Q123.14-14.28 123.14-18.23L123.14-18.23Q123.14-22.18 124.51-25.58Q125.87-28.98 128.36-31.48Q130.84-33.98 134.34-35.40Q137.84-36.83 142.09-36.83L142.09-36.83Q146.34-36.83 149.83-35.39Q153.32-33.95 155.79-31.45Q158.27-28.95 159.63-25.55Q160.99-22.15 160.99-18.23ZM152.34-18.23L152.34-18.23Q152.34-20.93 151.64-23.09Q150.94-25.25 149.63-26.75Q148.32-28.25 146.42-29.05Q144.52-29.85 142.09-29.85L142.09-29.85Q139.64-29.85 137.73-29.05Q135.82-28.25 134.51-26.75Q133.19-25.25 132.49-23.09Q131.79-20.93 131.79-18.23L131.79-18.23Q131.79-15.50 132.49-13.34Q133.19-11.18 134.51-9.68Q135.82-8.18 137.73-7.39Q139.64-6.60 142.09-6.60L142.09-6.60Q144.52-6.60 146.42-7.39Q148.32-8.18 149.63-9.68Q150.94-11.18 151.64-13.34Q152.34-15.50 152.34-18.23ZM175.64-13.48L173.49-13.48L173.49 0L165.04 0L165.04-36.43L176.89-36.43Q180.84-36.43 183.63-35.61Q186.42-34.80 188.18-33.35Q189.94-31.90 190.74-29.93Q191.54-27.95 191.54-25.63L191.54-25.63Q191.54-23.85 191.07-22.28Q190.59-20.70 189.65-19.36Q188.72-18.03 187.35-16.98Q185.99-15.93 184.22-15.25L184.22-15.25Q185.07-14.83 185.80-14.20Q186.54-13.58 187.09-12.68L187.09-12.68L194.84 0L187.19 0Q185.07 0 184.14-1.60L184.14-1.60L178.09-12.18Q177.69-12.88 177.15-13.18Q176.62-13.48 175.64-13.48L175.64-13.48ZM173.49-30.10L173.49-19.30L176.89-19.30Q178.62-19.30 179.83-19.74Q181.04-20.18 181.82-20.95Q182.59-21.73 182.94-22.76Q183.29-23.80 183.29-25L183.29-25Q183.29-27.40 181.73-28.75Q180.17-30.10 176.89-30.10L176.89-30.10L173.49-30.10ZM206.74-36.43L206.74-21.68L208.09-21.68Q209.96-21.68 210.79-22.85L210.79-22.85L218.99-34.75Q219.66-35.73 220.53-36.08Q221.39-36.43 222.64-36.43L222.64-36.43L229.99-36.43L219.19-21.70Q218.61-20.90 217.99-20.38Q217.36-19.85 216.71-19.50L216.71-19.50Q217.66-19.15 218.45-18.54Q219.24-17.93 219.89-16.90L219.89-16.90L230.89 0L223.34 0Q222.61 0 222.10-0.10Q221.59-0.20 221.21-0.40Q220.84-0.60 220.56-0.89Q220.29-1.18 220.04-1.55L220.04-1.55L211.79-14.23Q211.34-14.93 210.65-15.21Q209.96-15.50 208.79-15.50L208.79-15.50L206.74-15.50L206.74 0L198.29 0L198.29-36.43L206.74-36.43Z" opacity="1" transform="matrix(1,0,0,1,0,0)" fill="#293856" data-fill-palette-color="primary" data-stroke-palette-color="transparent" id="text-0" class="wordmark-0"></path></svg></g><g></g><g><rect width="227.88750000000002" height="37.225" x="0" y="0" fill="transparent" opacity="1" rx="0" ry="0" stroke-width="0" stroke="transparent" fill-opacity="0" data-fill-palette-color="transparent" data-stroke-palette-color="transparent" id="rect-0" class="rect-0" data-palette-color="transparent"></rect></g><g><svg data-name="Layer 1" viewBox="5.287775618484146 6.707242268446241 89.41222438151586 86.5656291371602" x="-74.9156424939602" y="-6.5" height="50.225" width="51.915642493960206" id="icon-0" class="icon-0" fill="#2257bf" data-fill-palette-color="accent" data-stroke-palette-color="transparent"><path d="M18.49,61.1a4,4,0,0,0,5.49.16L42.52,44.72a4,4,0,0,0-5.33-6l-15.72,14-8.35-8.35a4,4,0,0,0-5.66,5.66Z" fill="#2257bf" data-fill-palette-color="accent" data-stroke-palette-color="transparent"></path><path d="M89.7,45.91H53a4,4,0,0,0,0,8H89.7a4,4,0,0,0,0-8Z" fill="#2257bf" data-fill-palette-color="accent" data-stroke-palette-color="transparent"></path><path d="M18.49,91.1a4,4,0,0,0,5.49.16L42.52,74.72a4,4,0,1,0-5.33-6l-15.72,14-8.35-8.35a4,4,0,1,0-5.66,5.66Z" fill="#2257bf" data-fill-palette-color="accent" data-stroke-palette-color="transparent"></path><path d="M89.7,75.91H53a4,4,0,0,0,0,8H89.7a4,4,0,0,0,0-8Z" fill="#2257bf" data-fill-palette-color="accent" data-stroke-palette-color="transparent"></path><path d="M18.49,31.1a4,4,0,0,0,5.49.16L42.52,14.72a4,4,0,0,0-5.33-6l-15.72,14-8.35-8.35a4,4,0,0,0-5.66,5.66Z" fill="#2257bf" data-fill-palette-color="accent" data-stroke-palette-color="transparent"></path><path d="M89.7,15.91H53a4,4,0,0,0,0,8H89.7a4,4,0,0,0,0-8Z" fill="#2257bf" data-fill-palette-color="accent" data-stroke-palette-color="transparent"></path></svg></g></g><g id="character" width="175.1575" height="175.1575" style="display: none;" transform="matrix(1,0,0,1,174.9156424939602,106.5)"><path d="M88.66 131.37L53.68 131.37 53.68 43.79 85.9 43.79Q94.97 43.79 101.34 45.47 107.72 47.16 111.74 50.22 115.77 53.29 117.63 57.67 119.44 62.06 119.44 67.47L119.44 67.47Q119.44 70.42 118.59 73.12 117.75 75.89 115.95 78.29 114.15 80.7 111.32 82.62 108.5 84.6 104.53 86.05L104.53 86.05Q113.19 88.15 117.33 92.84 121.48 97.59 121.48 104.98L121.48 104.98Q121.48 110.57 119.32 115.38 117.15 120.19 112.94 123.73 108.8 127.34 102.67 129.32 96.53 131.37 88.66 131.37L88.66 131.37ZM88.18 94.22L73.99 94.22 73.99 116.04 88.3 116.04Q92.33 116.04 94.85 115.02 97.44 114 98.88 112.37 100.32 110.75 100.86 108.71 101.4 106.66 101.4 104.56L101.4 104.56Q101.4 102.16 100.8 100.23 100.14 98.31 98.64 96.99 97.08 95.66 94.55 94.94 92.03 94.22 88.18 94.22L88.18 94.22ZM73.99 59L73.99 80.64 84.57 80.64Q87.94 80.64 90.64 80.16 93.35 79.67 95.27 78.47 97.14 77.27 98.16 75.17 99.12 73.06 99.12 69.88L99.12 69.88Q99.12 66.75 98.34 64.65 97.56 62.6 95.93 61.34 94.31 60.08 91.79 59.54 89.32 59 85.9 59L85.9 59 73.99 59Z" fill="#293856"></path></g></g></svg></svg>